<svg xmlns="http://www.w3.org/2000/svg" width="173.379" height="83.434" viewBox="0 0 173.379 83.434">
    <defs>
        <clipPath id="zm2p1q3zya">
            <path data-name="사각형 22" style="fill:none" d="M0 0h173.379v83.434H0z"/>
        </clipPath>
    </defs>
    <g data-name="그룹 32">
        <g data-name="그룹 34">
            <g data-name="그룹 33" style="clip-path:url(#zm2p1q3zya)">
                <path data-name="패스 24" d="M30.962 26.729a14.663 14.663 0 0 1 0 3.553c-2.016.047-7.489.1-13.345.1.049 4.272.049 10.417-.048 13.49a19.909 19.909 0 0 1-4.128 0c-.1-3.025-.145-9.17-.048-13.49-5.377 0-10.561-.048-13.249-.1a11.026 11.026 0 0 1 0-3.553c5.233-.144 25.97-.144 30.818 0M2.5 12.616c0-6.673 3.7-10.369 13.153-10.369S28.8 5.943 28.8 12.616s-3.7 10.368-13.153 10.368S2.5 19.288 2.5 12.616m4.176 0c0 4.128 2.065 6.768 8.977 6.768 6.864 0 8.977-2.64 8.977-6.768s-2.113-6.768-8.977-6.768c-6.912 0-8.977 2.64-8.977 6.768M38.691 44.2a14.43 14.43 0 0 1-4.08 0c-.192-5.761-.192-36.675 0-42.53a11.646 11.646 0 0 1 4.08 0c.144 6.143.1 36.819 0 42.53" style="fill:#444"/>
                <path data-name="패스 25" d="M44.3 39.21c7.584-.192 35.618-.095 40.612 0a11.071 11.071 0 0 1 0 3.552c-4.9.193-34.467.145-40.612 0a11.02 11.02 0 0 1 0-3.552m2.932-35.523c4.849-.24 29.955-.144 34.323 0a11.93 11.93 0 0 1 0 3.7c-3.888.1-26.259.1-30.194 0-.049 3.457-.049 12.866 0 16.13 3.983 0 27.41-.048 31.154 0a15.828 15.828 0 0 1 0 3.7c-3.841.144-30.387.144-35.283 0-.288-5.616-.24-18 0-23.522" style="fill:#444"/>
                <path data-name="패스 26" d="M88.32 13.528c0-7.3 4.032-11.329 13.488-11.857 9.457-.48 13.49 3.168 13.49 10.465 0 7.345-4.033 11.377-13.49 11.857-9.456.528-13.488-3.121-13.488-10.465m39.123 30.339c-2.977-.96-10.321-3.456-16.85-6-6.48 3.409-13.825 6.913-16.657 8.065a21.957 21.957 0 0 1-3.072-6.289c3.744-1.92 9.889-4.9 15.457-7.584 0-1.921 0-4.033.1-5.9a72.53 72.53 0 0 1 8.209-.432c.1 1.824.1 3.937.1 5.857 5.665 2.016 12 4.127 15.746 5.52a23.142 23.142 0 0 1-3.024 6.769M96.24 13.144c0 2.832 1.536 4.368 5.568 4.128 3.937-.192 5.57-1.92 5.57-4.752 0-2.88-1.633-4.32-5.57-4.128-4.032.239-5.568 1.872-5.568 4.752m23.954 14.5c-.144-3.84-.144-23.81 0-27.218a51.955 51.955 0 0 1 7.921-.385c.1 5.185.192 22.611 0 27.219a60.828 60.828 0 0 1-7.921.384" style="fill:#444"/>
                <path data-name="패스 27" d="M132.624 39.21c7.585-.192 35.619-.095 40.612 0a11.014 11.014 0 0 1 0 3.552c-4.9.193-34.467.145-40.612 0a11.02 11.02 0 0 1 0-3.552m2.929-35.523c4.848-.24 29.954-.144 34.322 0a11.869 11.869 0 0 1 0 3.7c-3.887.1-26.258.1-30.194 0-.048 3.457-.048 12.866 0 16.13 3.984 0 27.409-.048 31.154 0a15.72 15.72 0 0 1 0 3.7c-3.84.144-30.386.144-35.282 0-.288-5.616-.24-18 0-23.522" style="fill:#444"/>
            </g>
        </g>
        <path data-name="패스 28" d="m36.9 66.3-4.151 14.517L28.382 66.3h-1.969l-4.369 14.517L17.891 66.3h-1.775l4.872 16.8H23l4.4-14.6 4.39 14.6h2.016l4.872-16.8z" style="fill:#444"/>
        <g data-name="그룹 36">
            <g data-name="그룹 35" style="clip-path:url(#zm2p1q3zya)">
                <path data-name="패스 29" d="M40.237 67.4a1.152 1.152 0 1 1 1.151 1.152 1.153 1.153 0 0 1-1.151-1.152m.359 3.7h1.584v12H40.6z" style="fill:#444"/>
                <path data-name="패스 30" d="M48.444 72.633V79.9c0 2.065 1.128 1.9 3.456 1.8v1.4c-3.24.48-5.04-.313-5.04-3.193v-7.274h-2.52V71.1h2.52v-2.88l1.584-.48v3.36H51.9v1.536z" style="fill:#444"/>
                <path data-name="패스 31" d="M64.86 75.73v7.37h-1.584v-7.37c0-2.137-1.176-3.385-3.264-3.385-2.112 0-3.888 1.248-3.888 4.465v6.29H54.54V66.3h1.584v6.673a4.433 4.433 0 0 1 4.033-2.16c2.928 0 4.7 1.92 4.7 4.921" style="fill:#444"/>
            </g>
        </g>
        <path data-name="패스 32" d="M67.812 66.3v16.8H78.2v-3.17h-7.075v-3.769h6.36v-3.12h-6.36v-3.576h6.96V66.3z" style="fill:#444"/>
        <g data-name="그룹 38">
            <g data-name="그룹 37" style="clip-path:url(#zm2p1q3zya)">
                <path data-name="패스 33" d="M92.342 71.1v12h-3.1v-1.418a4.777 4.777 0 0 1-3.912 1.752 6.358 6.358 0 0 1 0-12.673 4.777 4.777 0 0 1 3.912 1.752V71.1zm-3.1 6a3.325 3.325 0 1 0-3.336 3.385 3.226 3.226 0 0 0 3.339-3.385" style="fill:#444"/>
                <path data-name="패스 34" d="M99.3 74.073v4.992c0 1.3.936 1.32 2.712 1.224V83.1c-4.343.481-5.809-.792-5.809-4.032v-4.995h-2.087V71.1H96.2v-2.427l3.1-.937V71.1h2.712v2.977z" style="fill:#444"/>
                <path data-name="패스 35" d="M119.293 74.7c0 4.632-3.288 8.4-7.92 8.4h-6.482V66.3h6.482c4.632 0 7.92 3.768 7.92 8.4m-1.632 0c0-3.769-2.544-6.817-6.288-6.817h-4.8v13.631h4.8c3.744 0 6.288-3.048 6.288-6.816" style="fill:#444"/>
                <path data-name="패스 36" d="M127.308 70.9v1.536c-1.921 0-3.793 1.009-3.793 3.985V83.1h-1.584v-12h1.584v1.99a3.875 3.875 0 0 1 3.793-2.185" style="fill:#444"/>
                <path data-name="패스 37" d="M129.107 67.4a1.153 1.153 0 1 1 1.153 1.152 1.153 1.153 0 0 1-1.153-1.152m.361 3.7h1.584v12h-1.584z" style="fill:#444"/>
                <path data-name="패스 38" d="M144.732 75.73v7.37h-1.584v-7.37c0-2.137-1.177-3.385-3.265-3.385-2.112 0-3.888 1.248-3.888 4.465v6.29h-1.584v-12h1.584v1.872a4.433 4.433 0 0 1 4.032-2.16c2.929 0 4.705 1.92 4.705 4.921" style="fill:#444"/>
                <path data-name="패스 39" d="m155.387 83.1-6-5.784V83.1H147.8V66.3h1.584v10.1l5.716-5.3h2.16l-6.192 5.761L157.5 83.1z" style="fill:#444"/>
            </g>
        </g>
    </g>
</svg>
