<svg data-name="그룹 28" xmlns="http://www.w3.org/2000/svg" width="24" height="24" viewBox="0 0 24 24">
    <defs>
        <clipPath id="c0k0htb8ha">
            <path data-name="사각형 17" style="fill:none" d="M0 0h24v24H0z"/>
        </clipPath>
    </defs>
    <g data-name="그룹 27" style="clip-path:url(#c0k0htb8ha)">
        <path data-name="패스 20" d="M2.893 7.429a5.411 5.411 0 0 1 1.128-1.812A5.041 5.041 0 0 1 5.73 4.435a5.432 5.432 0 0 1 2.134-.415 4.774 4.774 0 0 1 2.417.63A4.681 4.681 0 0 1 12 6.325a4.692 4.692 0 0 1 1.723-1.675 4.745 4.745 0 0 1 2.412-.63 5.464 5.464 0 0 1 2.144.415 4.993 4.993 0 0 1 1.7 1.182 5.541 5.541 0 0 1 1.128 1.812 6.321 6.321 0 0 1 .405 2.3 8.175 8.175 0 0 1-1.112 4.028 16.489 16.489 0 0 1-3.116 3.886 31.911 31.911 0 0 1-4.684 3.623 1.513 1.513 0 0 1-.3.157.687.687 0 0 1-.6 0 1.5 1.5 0 0 1-.3-.157 32.138 32.138 0 0 1-4.693-3.623A16.332 16.332 0 0 1 3.6 13.757a8.2 8.2 0 0 1-1.107-4.024 6.384 6.384 0 0 1 .4-2.3m1.455 5.063a12.451 12.451 0 0 0 1.8 2.739 22.58 22.58 0 0 0 2.607 2.593 31.3 31.3 0 0 0 3.086 2.31.424.424 0 0 0 .166.1.468.468 0 0 0 .176-.1 32.336 32.336 0 0 0 3.081-2.31 21.7 21.7 0 0 0 2.6-2.593 12.791 12.791 0 0 0 1.792-2.739 6.41 6.41 0 0 0 .659-2.759 4.949 4.949 0 0 0-.542-2.363 4 4 0 0 0-1.485-1.582 4.052 4.052 0 0 0-2.133-.567 3.6 3.6 0 0 0-1.587.328 4.07 4.07 0 0 0-1.177.844 6.8 6.8 0 0 0-.85 1.075 1.6 1.6 0 0 1-.278.322.412.412 0 0 1-.263.084.432.432 0 0 1-.263-.088 1.5 1.5 0 0 1-.284-.322 5.643 5.643 0 0 0-.83-1.08 4.08 4.08 0 0 0-1.186-.839 3.647 3.647 0 0 0-1.587-.328 4.076 4.076 0 0 0-2.144.567A3.963 3.963 0 0 0 4.231 7.37a4.972 4.972 0 0 0-.537 2.363 6.431 6.431 0 0 0 .654 2.759"/>
    </g>
</svg>
