<svg data-name="그룹 17" xmlns="http://www.w3.org/2000/svg" width="16.304" height="21.449" viewBox="0 0 16.304 21.449">
    <g data-name="그룹 18">
        <path data-name="패스 14" d="M8.152 2a6.152 6.152 0 0 1 4.38 10.472 17.547 17.547 0 0 0-3.019 3.621 22.194 22.194 0 0 0-1.352 2.919 25.986 25.986 0 0 0-1.1-2.608 16.279 16.279 0 0 0-3.3-3.942A6.152 6.152 0 0 1 8.152 2m0-2a8.152 8.152 0 0 0-5.764 13.916A15.069 15.069 0 0 1 5.27 17.3a28.732 28.732 0 0 1 1.409 3.537 2.085 2.085 0 0 0 2.947 0 23.866 23.866 0 0 1 1.621-3.749 16.067 16.067 0 0 1 2.67-3.174A8.153 8.153 0 0 0 8.152 0" style="fill:#8e75e2"/>
        <path data-name="패스 15" d="M8.116 6.6a1.228 1.228 0 1 1-1.228 1.23A1.23 1.23 0 0 1 8.116 6.6m0-2a3.228 3.228 0 1 0 3.228 3.23A3.228 3.228 0 0 0 8.116 4.6" style="fill:#8e75e2"/>
    </g>
</svg>
