<svg data-name="그룹 20" xmlns="http://www.w3.org/2000/svg" width="22" height="22" viewBox="0 0 22 22">
    <defs>
        <clipPath id="274g97y1ia">
            <path data-name="사각형 12" style="fill:none" d="M0 0h22v22H0z"/>
        </clipPath>
    </defs>
    <g data-name="그룹 19" style="clip-path:url(#274g97y1ia)">
        <path data-name="패스 16" d="M11 1A10 10 0 1 1 1 11 10.011 10.011 0 0 1 11 1m0-1a11 11 0 1 0 11 11A11 11 0 0 0 11 0" style="fill:#8e8e8e"/>
        <path data-name="패스 17" d="M11 6.094a4 4 0 1 1-4 4 4 4 0 0 1 4-4m0-1a5 5 0 1 0 5 5 5 5 0 0 0-5-5" style="fill:#8e8e8e"/>
        <path data-name="패스 18" d="M13.624 16.094a4.228 4.228 0 0 1 3.87 2.5 9.976 9.976 0 0 1-12.988 0 4.229 4.229 0 0 1 3.87-2.5zm0-1H8.376a5.265 5.265 0 0 0-5.041 3.787 10.978 10.978 0 0 0 15.33 0 5.265 5.265 0 0 0-5.041-3.787" style="fill:#8e8e8e"/>
    </g>
</svg>
