<svg xmlns="http://www.w3.org/2000/svg" width="15.739" height="15.724" viewBox="0 0 15.739 15.724">
    <defs>
        <clipPath id="jo5k43ylma">
            <path data-name="사각형 26" style="fill:none" d="M0 0h15.739v15.724H0z"/>
        </clipPath>
    </defs>
    <g data-name="그룹 40" style="clip-path:url(#jo5k43ylma)">
        <path data-name="패스 44" d="M.033 14.918a1.142 1.142 0 0 1 0-.566.987.987 0 0 1 .278-.479l6-6.016-6-6a.96.96 0 0 1-.273-.479 1.178 1.178 0 0 1 0-.566A1.017 1.017 0 0 1 .316.318a1.051 1.051 0 0 1 .5-.283 1.208 1.208 0 0 1 .567 0 1.02 1.02 0 0 1 .488.274l6.004 6.005 6-6.005a.96.96 0 0 1 .484-.279 1.226 1.226 0 0 1 .562.005 1.11 1.11 0 0 1 .5.283 1.06 1.06 0 0 1 .279.489 1.089 1.089 0 0 1 0 .561 1.12 1.12 0 0 1-.278.493l-6 6 6 6.006a1.092 1.092 0 0 1 .273.493 1.162 1.162 0 0 1 0 .562 1.022 1.022 0 0 1-.273.488 1.034 1.034 0 0 1-.5.283 1.182 1.182 0 0 1-.567 0 1.011 1.011 0 0 1-.488-.273l-6-6.006-5.998 6.002a1.009 1.009 0 0 1-.483.273 1.182 1.182 0 0 1-.567 0 1.032 1.032 0 0 1-.5-.283.985.985 0 0 1-.283-.488"/>
    </g>
</svg>
