<svg xmlns="http://www.w3.org/2000/svg" width="24" height="24" viewBox="0 0 24 24">
    <defs>
        <clipPath id="ihbtncbr2a">
            <path data-name="사각형 18" style="fill:none" d="M0 0h24v24H0z"/>
        </clipPath>
    </defs>
    <g data-name="그룹 29" style="clip-path:url(#ihbtncbr2a)">
        <path data-name="패스 21" d="M6.4 22.717a1.049 1.049 0 0 1-.22-.7v-2.636h-.635a4.762 4.762 0 0 1-2.245-.488 3.278 3.278 0 0 1-1.412-1.416A4.79 4.79 0 0 1 1.4 15.24V7.389a4.791 4.791 0 0 1 .483-2.242A3.327 3.327 0 0 1 3.3 3.731a4.738 4.738 0 0 1 2.246-.493h12.91a4.738 4.738 0 0 1 2.246.493 3.317 3.317 0 0 1 1.411 1.422 4.785 4.785 0 0 1 .483 2.236v7.851a4.763 4.763 0 0 1-.483 2.232 3.314 3.314 0 0 1-1.413 1.416 4.738 4.738 0 0 1-2.246.493H11.5L8.074 22.4a4.279 4.279 0 0 1-.557.43.947.947 0 0 1-.517.146.75.75 0 0 1-.6-.259m4.116-4.147a1.349 1.349 0 0 1 .45-.306 1.589 1.589 0 0 1 .537-.075h6.943a2.935 2.935 0 0 0 2.192-.771 2.989 2.989 0 0 0 .757-2.187V7.389a2.961 2.961 0 0 0-.757-2.173 2.945 2.945 0 0 0-2.192-.766H5.554a2.943 2.943 0 0 0-2.2.766 2.975 2.975 0 0 0-.752 2.173v7.842a3 3 0 0 0 .752 2.187 2.933 2.933 0 0 0 2.2.771h1.182a.623.623 0 0 1 .435.127.586.586 0 0 1 .131.431v2.87zM6.487 8.347a.453.453 0 0 1-.132-.323.429.429 0 0 1 .132-.324.459.459 0 0 1 .327-.126h10.078a.458.458 0 0 1 .327.126.429.429 0 0 1 .132.323.453.453 0 0 1-.132.323.435.435 0 0 1-.327.136H6.814a.436.436 0 0 1-.327-.136m0 3.177a.439.439 0 0 1-.132-.326.451.451 0 0 1 .132-.323.441.441 0 0 1 .327-.137h10.078a.439.439 0 0 1 .327.137.451.451 0 0 1 .132.323.451.451 0 0 1-.459.458H6.814a.44.44 0 0 1-.327-.132m0 3.184a.433.433 0 0 1-.132-.317.449.449 0 0 1 .459-.459h6.6a.449.449 0 0 1 .459.459.433.433 0 0 1-.132.317.44.44 0 0 1-.327.132h-6.6a.44.44 0 0 1-.327-.132"/>
    </g>
</svg>
