<svg data-name="그룹 26" xmlns="http://www.w3.org/2000/svg" width="24" height="24" viewBox="0 0 24 24">
    <defs>
        <clipPath id="fejaphreoa">
            <path data-name="사각형 16" style="fill:none" d="M0 0h24v24H0z"/>
        </clipPath>
    </defs>
    <g data-name="그룹 25" style="clip-path:url(#fejaphreoa)">
        <path data-name="패스 19" d="M8.357 21.637a5.777 5.777 0 0 1-2.339-2.392 8.014 8.014 0 0 1-.845-3.839V7.125a1.778 1.778 0 0 1 .444-1.264 1.513 1.513 0 0 1 1.158-.473 1.651 1.651 0 0 1 .586.106 1.241 1.241 0 0 1 .478.322V4.625a1.733 1.733 0 0 1 .44-1.244 1.5 1.5 0 0 1 1.142-.464 1.274 1.274 0 0 1 .977.409 1.821 1.821 0 0 1 .517-1.152 1.563 1.563 0 0 1 1.153-.448 1.514 1.514 0 0 1 1.132.438 1.824 1.824 0 0 1 .489 1.173 1.272 1.272 0 0 1 .468-.317 1.539 1.539 0 0 1 .567-.1 1.62 1.62 0 0 1 1.211.468 1.757 1.757 0 0 1 .459 1.28v8.319c0 .059.022.089.068.089A.1.1 0 0 0 16.55 13l.83-2.08a1.98 1.98 0 0 1 .65-.855 1.491 1.491 0 0 1 .883-.288 1.623 1.623 0 0 1 1.177.459 1.552 1.552 0 0 1 .474 1.163 2.539 2.539 0 0 1-.157.859l-1.767 4.99A8.135 8.135 0 0 1 16 21.139a6.719 6.719 0 0 1-4.2 1.318 7.044 7.044 0 0 1-3.447-.82m6.987-1.3a6.865 6.865 0 0 0 2.36-3.417l1.807-5.088a1.1 1.1 0 0 0 .044-.693.629.629 0 0 0-.425-.41.678.678 0 0 0-.571.019.939.939 0 0 0-.435.509l-1.347 3.115a.936.936 0 0 1-.332.434.8.8 0 0 1-.43.122.63.63 0 0 1-.459-.181.668.668 0 0 1-.186-.5V4.733a.884.884 0 0 0-.2-.605.7.7 0 0 0-.556-.235.758.758 0 0 0-.581.235.847.847 0 0 0-.22.605v6.894a.5.5 0 0 1-.142.356.477.477 0 0 1-.7 0 .514.514 0 0 1-.137-.356V3.57a.914.914 0 0 0-.214-.619.693.693 0 0 0-.547-.25.736.736 0 0 0-.581.25.9.9 0 0 0-.22.619v8.048a.485.485 0 0 1-.152.38.5.5 0 0 1-.346.137.49.49 0 0 1-.338-.135.484.484 0 0 1-.151-.38V4.733a.851.851 0 0 0-.22-.605.749.749 0 0 0-.571-.235.7.7 0 0 0-.562.235.9.9 0 0 0-.2.605v7.382a.487.487 0 0 1-.5.519.477.477 0 0 1-.328-.134.5.5 0 0 1-.147-.382v-4.9a.84.84 0 0 0-.224-.606.761.761 0 0 0-.577-.234.7.7 0 0 0-.561.234.9.9 0 0 0-.2.606v8.095a7.325 7.325 0 0 0 .693 3.345 4.746 4.746 0 0 0 1.948 2.06 5.969 5.969 0 0 0 2.945.7 6.005 6.005 0 0 0 3.569-1.079"/>
    </g>
</svg>
