<svg data-name="그룹 16" xmlns="http://www.w3.org/2000/svg" width="128.711" height="124.943" viewBox="0 0 128.711 124.943">
    <defs>
        <clipPath id="lrrotcy0sa">
            <path data-name="사각형 8" style="fill:none" d="M0 0h128.711v124.943H0z"/>
        </clipPath>
        <clipPath id="prpkxxc7jb">
            <path data-name="패스 10" d="m88.625 153.879-34.275-4.031-34.275 4.031v34.977l34.275-4.032 34.275 4.032 34.275-4.032v-34.976z" transform="translate(-20.075 -149.848)" style="fill:none"/>
        </clipPath>
        <clipPath id="otzgop5plc">
            <path data-name="사각형 6" style="fill:none" d="M0 0h40.219v19.373H0z"/>
        </clipPath>
    </defs>
    <g data-name="그룹 15" style="clip-path:url(#lrrotcy0sa)">
        <path data-name="패스 5" d="m17.575 151.359 35.517-4.178 34.275 4.032 35.517-4.178v37.478l-35.517 4.178-34.275-4.032-35.517 4.178z" transform="translate(-8.846 -74.005)" style="fill:#d8e2d5"/>
        <path data-name="패스 6" d="M112.795 74.428v34.977l-34.275 4.031-34.274-4.031-34.275 4.031V78.459l34.275-4.031 34.274 4.031zm2.483-2.793-2.773.326-33.985 4-33.984-4-.29-.034-.291.034-34.274 4.032-2.193.258v39.978l2.773-.326 33.985-4 33.984 4 .29.034.29-.034 34.275-4.032 2.193-.258V71.635z"/>
        <g data-name="그룹 9">
            <g data-name="그룹 8" style="clip-path:url(#prpkxxc7jb)" transform="translate(9.971 74.427)">
                <path data-name="패스 7" d="m128.645 165.879-.4-.606a2.572 2.572 0 0 0-2.18-.524l-6.132.775a2.533 2.533 0 0 1-2.189-.538l-2.93-4.758c-.251-.408.3-.828 1.236-.939L126.854 158c.938-.112 1.49-.533 1.234-.942l-.382-.609a2.522 2.522 0 0 0-2.161-.538l-10.772 1.289a2.514 2.514 0 0 1-2.164-.541l-2.967-4.816c-.253-.411.308-.832 1.25-.941l2.426-.279a1.73 1.73 0 0 0 1.255-.55l1.836-3.1c.335-.568-.854-1.083-2.154-.933l-5.953.685a2.5 2.5 0 0 1-2.149-.543l-2.855-4.635c-.253-.411.31-.834 1.255-.941l.506-.058c.94-.107 1.5-.526 1.258-.936l-.366-.61a2.485 2.485 0 0 0-2.148-.548l-75.121 8.563a2.488 2.488 0 0 1-2.146-.546l-8.554-14.119a2.493 2.493 0 0 0-2.151-.546l-6.2.714c-.94.108-1.5.528-1.252.938l13.581 22.409c.248.41-.312.829-1.252.938l-18.9 2.177c-.944.108-1.5.531-1.249.942l1.674 2.7a2.5 2.5 0 0 0 2.148.542l18.862-2.173a2.494 2.494 0 0 1 2.151.546l3.12 5.15c.246.407-.305.825-1.237.936l-22.354 2.664c-.938.112-1.49.533-1.234.942l.382.609a2.523 2.523 0 0 0 2.162.538l22.286-2.656a2.506 2.506 0 0 1 2.166.544l3.957 6.531a2.493 2.493 0 0 0 2.151.546l6.2-.714c.94-.108 1.5-.528 1.252-.938l-3.987-6.58c-.246-.407.306-.825 1.238-.936l19.893-2.375a2.522 2.522 0 0 1 2.161.537l15.116 24.109a2.522 2.522 0 0 0 2.161.538l1.4-.166c.937-.112 1.49-.533 1.233-.942l-9.7-15.479c-.253-.4.284-.823 1.208-.939l22.362-2.826a2.546 2.546 0 0 1 2.186.533l5.732 9.07a2.527 2.527 0 0 0 2.164.536l1.4-.167c.937-.113 1.487-.535 1.229-.944l-5.762-9.118c-.256-.4.282-.824 1.206-.941l7.526-.951a2.532 2.532 0 0 1 2.189.538l1.542 2.5a2.506 2.506 0 0 0 2.156.542l1.4-.163c.939-.11 1.5-.531 1.243-.94l-1.585-2.574c-.248-.4.289-.82 1.21-.936l6.293-.8c.933-.118 1.471-.544 1.2-.951m-30.158-23.8 2.86 4.644c.253.41-.308.832-1.25.941L70.43 151.07a2.537 2.537 0 0 1-2.141-.53l-3.058-4.657c-.272-.414.291-.844 1.247-.954l29.878-3.406a2.5 2.5 0 0 1 2.145.543m-38.1 4.33 3.063 4.666c.271.413-.289.843-1.242.953l-28.494 3.282a2.5 2.5 0 0 1-2.151-.546l-2.877-4.713c-.248-.41.314-.831 1.257-.938l28.292-3.225a2.535 2.535 0 0 1 2.137.531m-22.3 19.128-3.09-5.1c-.248-.41.312-.83 1.252-.938l19.769-2.277a2.511 2.511 0 0 1 2.147.539l3.145 5.016c.256.409-.3.831-1.234.943l-19.822 2.363a2.506 2.506 0 0 1-2.166-.544m26.136-9.261 38.461-4.43a2.5 2.5 0 0 1 2.149.543l2.985 4.847c.251.408-.3.827-1.235.939l-38.321 4.568a2.523 2.523 0 0 1-2.162-.542l-3.125-4.985c-.258-.411.3-.835 1.248-.944m7.287 14.559-3.172-5.06c-.256-.409.3-.831 1.233-.943l22.416-2.672a2.527 2.527 0 0 1 2.161.536l3.1 4.909c.256.4-.282.824-1.206.941L73.7 171.366a2.543 2.543 0 0 1-2.187-.535m30.5-3.852-3.068-4.854c-.258-.409.294-.832 1.232-.944l7.682-.915a2.513 2.513 0 0 1 2.164.541l2.964 4.812c.249.4-.289.82-1.209.936l-7.578.958a2.546 2.546 0 0 1-2.186-.533" transform="translate(-10.223 -140.749)" style="fill:#fff"/>
                <path data-name="패스 8" d="m128.645 165.879-.4-.606a2.572 2.572 0 0 0-2.18-.524l-6.132.775a2.533 2.533 0 0 1-2.189-.538l-2.93-4.758c-.251-.408.3-.828 1.236-.939L126.854 158c.938-.112 1.49-.533 1.234-.942l-.382-.609a2.522 2.522 0 0 0-2.161-.538l-10.772 1.289a2.514 2.514 0 0 1-2.164-.541l-2.967-4.816c-.253-.411.308-.832 1.25-.941l2.426-.279a1.73 1.73 0 0 0 1.255-.55l1.836-3.1c.335-.568-.854-1.083-2.154-.933l-5.953.685a2.5 2.5 0 0 1-2.149-.543l-2.855-4.635c-.253-.411.31-.834 1.255-.941l.506-.058c.94-.107 1.5-.526 1.258-.936l-.366-.61a2.485 2.485 0 0 0-2.148-.548l-75.121 8.563a2.488 2.488 0 0 1-2.146-.546l-8.554-14.119a2.493 2.493 0 0 0-2.151-.546l-6.2.714c-.94.108-1.5.528-1.252.938l13.581 22.409c.248.41-.312.829-1.252.938l-18.9 2.177c-.944.108-1.5.531-1.249.942l1.674 2.7a2.5 2.5 0 0 0 2.148.542l18.862-2.173a2.494 2.494 0 0 1 2.151.546l3.12 5.15c.246.407-.305.825-1.237.936l-22.354 2.664c-.938.112-1.49.533-1.234.942l.382.609a2.523 2.523 0 0 0 2.162.538l22.286-2.656a2.506 2.506 0 0 1 2.166.544l3.957 6.531a2.493 2.493 0 0 0 2.151.546l6.2-.714c.94-.108 1.5-.528 1.252-.938l-3.987-6.58c-.246-.407.306-.825 1.238-.936l19.893-2.375a2.522 2.522 0 0 1 2.161.537l15.116 24.109a2.522 2.522 0 0 0 2.161.538l1.4-.166c.937-.112 1.49-.533 1.233-.942l-9.7-15.479c-.253-.4.284-.823 1.208-.939l22.362-2.826a2.546 2.546 0 0 1 2.186.533l5.732 9.07a2.527 2.527 0 0 0 2.164.536l1.4-.167c.937-.113 1.487-.535 1.229-.944l-5.762-9.118c-.256-.4.282-.824 1.206-.941l7.526-.951a2.532 2.532 0 0 1 2.189.538l1.542 2.5a2.506 2.506 0 0 0 2.156.542l1.4-.163c.939-.11 1.5-.531 1.243-.94l-1.585-2.574c-.248-.4.289-.82 1.21-.936l6.293-.8c.918-.106 1.456-.532 1.186-.938zm-30.158-23.8 2.86 4.644c.253.41-.308.832-1.25.941l-29.681 3.419a2.537 2.537 0 0 1-2.141-.53l-3.058-4.657c-.272-.414.291-.844 1.247-.954l29.878-3.406a2.5 2.5 0 0 1 2.145.539zm-38.1 4.33 3.063 4.666c.271.413-.289.843-1.242.953l-28.494 3.282a2.5 2.5 0 0 1-2.151-.546l-2.863-4.726c-.248-.41.314-.831 1.257-.938l28.292-3.225a2.535 2.535 0 0 1 2.14.531zm-22.3 19.128-3.09-5.1c-.248-.41.312-.83 1.252-.938l19.769-2.277a2.511 2.511 0 0 1 2.147.539l3.145 5.016c.256.409-.3.831-1.234.943l-19.822 2.363a2.506 2.506 0 0 1-2.163-.55zm26.136-9.261 38.461-4.43a2.5 2.5 0 0 1 2.149.543l2.985 4.847c.251.408-.3.827-1.235.939l-38.321 4.568a2.523 2.523 0 0 1-2.162-.543l-3.125-4.985c-.255-.41.306-.834 1.251-.943zm7.287 14.559-3.172-5.06c-.256-.409.3-.831 1.233-.943l22.416-2.672a2.527 2.527 0 0 1 2.161.536l3.1 4.909c.256.4-.282.824-1.206.941l-22.342 2.82a2.543 2.543 0 0 1-2.186-.535zm30.5-3.852-3.068-4.854c-.258-.409.294-.832 1.232-.944l7.682-.915a2.513 2.513 0 0 1 2.164.541l2.964 4.812c.249.4-.289.82-1.209.936l-7.578.958a2.546 2.546 0 0 1-2.185-.538z" transform="translate(-10.223 -140.749)" style="stroke:#a3a3a3;stroke-miterlimit:10;fill:none"/>
                <path data-name="패스 9" d="m114.663 150.118 1.715-2.9c.154-.261-.015-.53-.453-.72a3.4 3.4 0 0 0-1.654-.194l-79.987 9.213a4.8 4.8 0 0 1-1.683-.1 1.669 1.669 0 0 1-1.03-.59L18.1 132.588a1.3 1.3 0 0 0-.8-.457 3.725 3.725 0 0 0-1.307-.077l-5.793.668a2.23 2.23 0 0 0-1.049.348c-.231.173-.294.376-.176.57l13.475 22.242c.151.25.071.511-.227.734a2.869 2.869 0 0 1-1.351.449L2.38 159.193a2.219 2.219 0 0 0-1.051.35c-.231.174-.293.377-.172.572l1.564 2.522a2.459 2.459 0 0 0 2.1.53l18.453-2.126a4.984 4.984 0 0 1 .571-.032 4.57 4.57 0 0 1 1.113.132 1.666 1.666 0 0 1 1.029.589l9.137 15.081a2.446 2.446 0 0 0 2.106.534l5.793-.667a2.235 2.235 0 0 0 1.049-.349c.231-.173.294-.375.176-.57l-9.137-15.08c-.312-.516.4-1.047 1.579-1.183l76.742-8.839a1.7 1.7 0 0 0 1.228-.539" transform="translate(-10.523 -140.879)" style="fill:#edd7ab"/>
            </g>
        </g>
        <g data-name="그룹 14">
            <g data-name="그룹 13" style="clip-path:url(#lrrotcy0sa)">
                <g data-name="그룹 12" style="mix-blend-mode:multiply;isolation:isolate">
                    <g data-name="그룹 11">
                        <g data-name="그룹 10" style="clip-path:url(#otzgop5plc)" transform="translate(26.311 84.11)">
                            <path data-name="패스 11" d="M93.193 179.028c0 5.35-9 9.686-20.11 9.686s-20.109-4.337-20.109-9.686 9-9.686 20.109-9.686 20.11 4.337 20.11 9.686" transform="translate(-52.974 -169.342)" style="fill:#8e75e2"/>
                        </g>
                    </g>
                </g>
                <path data-name="패스 12" d="M96.417 64.535 85.366 82.774a11.725 11.725 0 0 0 3.952 16.105l.453.274a3.364 3.364 0 0 1 1.133 4.619l-9.768 16.121a4.207 4.207 0 0 0 1.418 5.779l5.3 3.211a4.207 4.207 0 0 0 5.779-1.418l9.768-16.121a3.363 3.363 0 0 1 4.619-1.133l.453.274a11.726 11.726 0 0 0 16.105-3.952l25.447-42z" transform="translate(-40.53 -32.481)" style="fill:#8e75e2"/>
                <path data-name="패스 13" d="M81.924 2.483a9.225 9.225 0 0 1 4.779 1.34l19.154 11.606a9.253 9.253 0 0 1 3.113 12.694L81.92 72.765a9.238 9.238 0 0 1-12.694 3.115l-.453-.275a5.845 5.845 0 0 0-8.03 1.97L50.978 93.7a1.715 1.715 0 0 1-1.479.831 1.7 1.7 0 0 1-.89-.25l-5.3-3.211a1.725 1.725 0 0 1-.579-2.37l9.768-16.121a5.846 5.846 0 0 0-1.97-8.029l-.453-.275a9.243 9.243 0 0 1-3.116-12.695l27.05-44.642a9.184 9.184 0 0 1 7.916-4.455m0-2.483a11.719 11.719 0 0 0-10.04 5.651l-27.05 44.642A11.726 11.726 0 0 0 48.788 66.4l.453.275a3.363 3.363 0 0 1 1.129 4.616l-9.764 16.121a4.207 4.207 0 0 0 1.418 5.779l5.3 3.211a4.206 4.206 0 0 0 5.779-1.418l9.767-16.121a3.361 3.361 0 0 1 4.619-1.133l.453.275a11.721 11.721 0 0 0 16.105-3.952l27.05-44.642a11.726 11.726 0 0 0-3.953-16.111L87.99 1.7A11.673 11.673 0 0 0 81.924 0"/>
            </g>
        </g>
    </g>
</svg>
